<svg xmlns:xlink="http://www.w3.org/1999/xlink" xmlns="http://www.w3.org/2000/svg" class="svg-class " width="20.4"  height="20.4" ><defs><symbol xmlns="http://www.w3.org/2000/svg" viewBox="0 0 20.4 20.4" id="icon-select2"><defs><style>#icon-select2 .cls-1{fill:#fff;}#icon-select2 .cls-2{fill:#0f7bff;}</style></defs><title>选中_2</title><g id="icon-select2_图层_2" data-name="图层 2"><g id="icon-select2_图层_1-2" data-name="图层 1"><path class="cls-1" d="M8.31,14.4a.92.92,0,0,0,1.25,0l6.68-6.28,0,0A.91.91,0,0,0,15,6.83L9.12,12.36s-.08.08-.14.05a.2.2,0,0,1-.14-.06L6,9.33A.9.9,0,0,0,5.34,9h0a.91.91,0,0,0-.66,1.53Z" fill="#FFFFFF"></path><path class="cls-2" d="M10.5,0a10.2,10.2,0,0,0-7.71,17.2A10.13,10.13,0,0,0,9.91,20.4h.3A10.2,10.2,0,0,0,10.5,0Zm5.76,8.08,0,0L9.56,14.4a.92.92,0,0,1-1.25,0L4.66,10.58A.91.91,0,0,1,5.32,9h0A.9.9,0,0,1,6,9.33l2.86,3a.2.2,0,0,0,.14.06c.06,0,.11,0,.14-.05L15,6.83a.91.91,0,0,1,1.3,1.26Z" fill="#0F7BFF"></path></g></g></symbol></defs><use xlink:href="#icon-select2" fill="#333333"></use></svg>