<svg width="36" height="36" viewBox="0 0 36 36" fill="none" xmlns="http://www.w3.org/2000/svg">
<g clip-path="url(#clip0_1_182)">
<path d="M9.10799 7.908H26.94V10.452L16.14 23.184H22.272V20.124L26.94 14.82H34.26V11.508C34.2537 10.6322 34.0176 9.77338 33.5754 9.0174C33.1332 8.26141 32.5003 7.63474 31.74 7.2L20.508 0.671996C19.7473 0.232803 18.8844 0.00158691 18.006 0.00158691C17.1276 0.00158691 16.2647 0.232803 15.504 0.671996L4.24799 7.2C3.48991 7.63625 2.85943 8.26359 2.41937 9.01947C1.97932 9.77535 1.74508 10.6334 1.73999 11.508L1.73999 16.188H9.10799V7.908Z" fill="#0F7BFF"/>
<path d="M26.94 18.984V28.092H9.10799V24.708L19.296 12.708H13.152V15.756L9.10799 20.4H1.73999V24.54C1.75339 25.4064 1.99157 26.2546 2.43121 27.0013C2.87085 27.7481 3.49687 28.3679 4.24799 28.8L15.504 35.292C16.2647 35.7312 17.1276 35.9624 18.006 35.9624C18.8844 35.9624 19.7473 35.7312 20.508 35.292L31.74 28.8C32.5016 28.3617 33.1343 27.7306 33.5746 26.9701C34.0149 26.2097 34.2471 25.3467 34.248 24.468V18.984H26.94Z" fill="#0F7BFF"/>
</g>
<defs>
<clipPath id="clip0_1_182">
<rect width="36" height="36" fill="white"/>
</clipPath>
</defs>
</svg>
